<svg id="Layer_1" data-name="Layer 1" xmlns="http://www.w3.org/2000/svg" viewBox="0 0 309.26 70.29"><defs><style>.cls-1{fill:#11294b;}.cls-2{fill:#6b6b6b;}</style></defs><path class="cls-1" d="M10.47,29.81A10.13,10.13,0,0,1,21,19.46a9.23,9.23,0,0,1,8.52,4.89l-3.66,1.8A5.48,5.48,0,0,0,21,23.24c-3.48,0-6.12,2.79-6.12,6.57s2.64,6.57,6.12,6.57a5.42,5.42,0,0,0,4.86-2.91l3.66,1.77A9.29,9.29,0,0,1,21,40.16,10.13,10.13,0,0,1,10.47,29.81Z" transform="translate(-10.47 -18.62)"/><path class="cls-1" d="M38.58,25c4.32,0,7.26,3.24,7.26,8v.84H35.07a3.9,3.9,0,0,0,4.17,3.36,5.93,5.93,0,0,0,3.87-1.44l1.68,2.46a8.93,8.93,0,0,1-6,2c-4.41,0-7.74-3-7.74-7.62A7.37,7.37,0,0,1,38.58,25ZM35,31.19h7.14A3.36,3.36,0,0,0,38.58,28,3.48,3.48,0,0,0,35,31.19Z" transform="translate(-10.47 -18.62)"/><path class="cls-1" d="M58.44,31c0-2-1-2.7-2.67-2.7a4.13,4.13,0,0,0-3.3,1.71V39.8H48.66V25.31h3.81V27.2A6.63,6.63,0,0,1,57.54,25c3.18,0,4.71,1.8,4.71,4.62V39.8H58.44Z" transform="translate(-10.47 -18.62)"/><path class="cls-1" d="M66.84,36.2V28.64h-2.4V25.31h2.4v-4h3.84v4h2.94v3.33H70.68v6.54c0,.9.48,1.59,1.32,1.59a2.08,2.08,0,0,0,1.32-.42l.81,2.88a4.7,4.7,0,0,1-3.18.93C68.28,40.16,66.84,38.78,66.84,36.2Z" transform="translate(-10.47 -18.62)"/><path class="cls-1" d="M82.86,25c4.32,0,7.26,3.24,7.26,8v.84H79.35a3.9,3.9,0,0,0,4.17,3.36,5.93,5.93,0,0,0,3.87-1.44l1.68,2.46a8.93,8.93,0,0,1-6,2c-4.41,0-7.74-3-7.74-7.62A7.37,7.37,0,0,1,82.86,25Zm-3.57,6.24h7.14A3.36,3.36,0,0,0,82.86,28,3.48,3.48,0,0,0,79.29,31.19Z" transform="translate(-10.47 -18.62)"/><path class="cls-1" d="M92.94,25.31h3.81v2A6.2,6.2,0,0,1,101.37,25V28.7a5.06,5.06,0,0,0-1.05-.09,4.83,4.83,0,0,0-3.57,1.62V39.8H92.94Z" transform="translate(-10.47 -18.62)"/><path class="cls-1" d="M112.38,28.64H110V25.31h2.4v-.78a4.67,4.67,0,0,1,4.89-5,6.16,6.16,0,0,1,2.76.6l-.78,2.7a2.34,2.34,0,0,0-1.23-.3c-1.08,0-1.8.72-1.8,2.1v.72h2.94v3.33h-2.94V39.8h-3.84Z" transform="translate(-10.47 -18.62)"/><path class="cls-1" d="M120.48,32.54a7.67,7.67,0,0,1,15.33,0,7.67,7.67,0,0,1-15.33,0Zm11.37,0c0-2.25-1.35-4.2-3.72-4.2s-3.69,1.95-3.69,4.2,1.32,4.23,3.69,4.23S131.85,34.82,131.85,32.54Z" transform="translate(-10.47 -18.62)"/><path class="cls-1" d="M138.69,25.31h3.81v2A6.2,6.2,0,0,1,147.12,25V28.7a5.06,5.06,0,0,0-1.05-.09,4.83,4.83,0,0,0-3.57,1.62V39.8h-3.81V25.31Z" transform="translate(-10.47 -18.62)"/><path class="cls-1" d="M170.12,36.35h-8.94l-1.26,3.45h-4.68l7.74-20h5.34l7.71,20h-4.65Zm-7.8-3.69H169l-3.3-9.18Z" transform="translate(-10.47 -18.62)"/><path class="cls-1" d="M177.86,25.31h3.81v2A6.2,6.2,0,0,1,186.29,25V28.7a5.06,5.06,0,0,0-1-.09,4.83,4.83,0,0,0-3.57,1.62V39.8h-3.81V25.31Z" transform="translate(-10.47 -18.62)"/><path class="cls-1" d="M189.47,36.2V28.64h-2.4V25.31h2.4v-4h3.84v4h2.94v3.33h-2.94v6.54c0,.9.48,1.59,1.32,1.59a2.08,2.08,0,0,0,1.32-.42l.81,2.88a4.7,4.7,0,0,1-3.18.93C190.91,40.16,189.47,38.78,189.47,36.2Z" transform="translate(-10.47 -18.62)"/><path class="cls-1" d="M198.53,20.9a2.28,2.28,0,1,1,2.28,2.28A2.3,2.3,0,0,1,198.53,20.9Zm.39,4.41h3.81V39.8h-3.81Z" transform="translate(-10.47 -18.62)"/><path class="cls-1" d="M207.41,28.64H205V25.31h2.4v-.78a4.67,4.67,0,0,1,4.89-5,6.16,6.16,0,0,1,2.76.6l-.78,2.76a2.14,2.14,0,0,0-1.23-.36c-1.08,0-1.8.72-1.8,2v.78h2.94v3.33h-2.94V39.8h-3.84ZM216,20.9a2.28,2.28,0,1,1,2.28,2.28A2.3,2.3,0,0,1,216,20.9Zm.39,4.41h3.81V39.8h-3.81Z" transform="translate(-10.47 -18.62)"/><path class="cls-1" d="M230.78,25a6.68,6.68,0,0,1,5.73,2.64L234,29.9A3.58,3.58,0,0,0,231,28.34a3.87,3.87,0,0,0-3.93,4.2A3.9,3.9,0,0,0,231,36.77,3.66,3.66,0,0,0,234,35.21l2.49,2.31a6.68,6.68,0,0,1-5.73,2.64,7.36,7.36,0,0,1-7.68-7.62A7.35,7.35,0,0,1,230.78,25Z" transform="translate(-10.47 -18.62)"/><path class="cls-1" d="M238.67,20.9A2.28,2.28,0,1,1,241,23.18,2.3,2.3,0,0,1,238.67,20.9Zm.39,4.41h3.81V39.8h-3.81Z" transform="translate(-10.47 -18.62)"/><path class="cls-1" d="M255.41,38.3a6,6,0,0,1-4.59,1.86,4.83,4.83,0,0,1-5-4.8c0-3.39,2.73-4.62,5-4.62a5.86,5.86,0,0,1,4.59,1.77v-2c0-1.47-1.26-2.43-3.18-2.43A6.1,6.1,0,0,0,248,29.78l-1.44-2.55A9.51,9.51,0,0,1,252.89,25c3.3,0,6.33,1.32,6.33,5.49V39.8h-3.81V38.3Zm0-3.78a3.81,3.81,0,0,0-3.06-1.26c-1.5,0-2.73.81-2.73,2.19s1.23,2.13,2.73,2.13a3.81,3.81,0,0,0,3.06-1.26Z" transform="translate(-10.47 -18.62)"/><path class="cls-1" d="M263.06,19.79h3.81v20h-3.81Z" transform="translate(-10.47 -18.62)"/><path class="cls-1" d="M11.43,47.79h4.26v20H11.43Z" transform="translate(-10.47 -18.62)"/><path class="cls-1" d="M29.4,59c0-2-1-2.7-2.67-2.7a4.13,4.13,0,0,0-3.3,1.71V67.8H19.62V53.31h3.81V55.2A6.63,6.63,0,0,1,28.5,53c3.18,0,4.71,1.8,4.71,4.62V67.8H29.4Z" transform="translate(-10.47 -18.62)"/><path class="cls-1" d="M37.8,64.2V56.64H35.4V53.31h2.4v-4h3.84v4h2.94v3.33H41.64v6.54c0,.9.48,1.59,1.32,1.59a2.08,2.08,0,0,0,1.32-.42l.81,2.88a4.7,4.7,0,0,1-3.18.93C39.24,68.16,37.8,66.78,37.8,64.2Z" transform="translate(-10.47 -18.62)"/><path class="cls-1" d="M53.82,53c4.32,0,7.26,3.24,7.26,8v.84H50.31a3.9,3.9,0,0,0,4.17,3.36,5.93,5.93,0,0,0,3.87-1.44L60,66.15a8.93,8.93,0,0,1-6,2c-4.41,0-7.74-3-7.74-7.62A7.37,7.37,0,0,1,53.82,53Zm-3.57,6.24h7.14A3.36,3.36,0,0,0,53.82,56,3.48,3.48,0,0,0,50.25,59.19Z" transform="translate(-10.47 -18.62)"/><path class="cls-1" d="M63.9,47.79h3.81v20H63.9Z" transform="translate(-10.47 -18.62)"/><path class="cls-1" d="M71.55,47.79h3.81v20H71.55Z" transform="translate(-10.47 -18.62)"/><path class="cls-1" d="M78.81,48.9a2.28,2.28,0,1,1,2.28,2.28A2.3,2.3,0,0,1,78.81,48.9Zm.39,4.41H83V67.8H79.2Z" transform="translate(-10.47 -18.62)"/><path class="cls-1" d="M88.26,68.76a5.76,5.76,0,0,0,4.53,1.8c1.83,0,4-.81,4-3.66V65.43a5.64,5.64,0,0,1-4.47,2.28c-3.63,0-6.39-2.55-6.39-7.38S88.65,53,92.31,53a5.58,5.58,0,0,1,4.47,2.22V53.31h3.84v13.5c0,5.52-4.26,6.87-7.83,6.87a8.73,8.73,0,0,1-6.24-2.16ZM96.78,58a4.13,4.13,0,0,0-3.27-1.65c-2.16,0-3.66,1.5-3.66,4s1.5,4,3.66,4a4.22,4.22,0,0,0,3.27-1.65Z" transform="translate(-10.47 -18.62)"/><path class="cls-1" d="M111,53c4.32,0,7.26,3.24,7.26,8v.84H107.52a3.9,3.9,0,0,0,4.17,3.36,5.93,5.93,0,0,0,3.87-1.44l1.68,2.46a8.93,8.93,0,0,1-6,2c-4.41,0-7.74-3-7.74-7.62A7.37,7.37,0,0,1,111,53Zm-3.57,6.24h7.14A3.36,3.36,0,0,0,111,56,3.48,3.48,0,0,0,107.46,59.19Z" transform="translate(-10.47 -18.62)"/><path class="cls-1" d="M130.89,59c0-2-1-2.7-2.67-2.7a4.13,4.13,0,0,0-3.3,1.71V67.8h-3.81V53.31h3.81V55.2A6.63,6.63,0,0,1,130,53c3.18,0,4.71,1.8,4.71,4.62V67.8h-3.81V59Z" transform="translate(-10.47 -18.62)"/><path class="cls-1" d="M145.28,53A6.68,6.68,0,0,1,151,55.59l-2.49,2.31a3.58,3.58,0,0,0-3.06-1.56,3.87,3.87,0,0,0-3.93,4.2,3.9,3.9,0,0,0,3.93,4.23,3.66,3.66,0,0,0,3.06-1.56L151,65.52a6.68,6.68,0,0,1-5.73,2.64,7.61,7.61,0,1,1,0-15.21Z" transform="translate(-10.47 -18.62)"/><path class="cls-1" d="M160.13,53c4.32,0,7.26,3.24,7.26,8v.84H156.62a3.9,3.9,0,0,0,4.17,3.36,5.93,5.93,0,0,0,3.87-1.44l1.68,2.46a8.93,8.93,0,0,1-6,2c-4.41,0-7.74-3-7.74-7.62A7.38,7.38,0,0,1,160.13,53Zm-3.57,6.24h7.14A3.36,3.36,0,0,0,160.13,56,3.48,3.48,0,0,0,156.56,59.19Z" transform="translate(-10.47 -18.62)"/><path class="cls-1" d="M178,47.79h4.26v20H178Z" transform="translate(-10.47 -18.62)"/><path class="cls-1" d="M196,59c0-2-1-2.7-2.67-2.7a4.13,4.13,0,0,0-3.3,1.71V67.8h-3.81V53.31H190V55.2A6.63,6.63,0,0,1,195.11,53c3.18,0,4.71,1.8,4.71,4.62V67.8H196V59Z" transform="translate(-10.47 -18.62)"/><path class="cls-1" d="M213.44,59c0-2-1.05-2.7-2.67-2.7a4.13,4.13,0,0,0-3.3,1.71V67.8h-3.81V53.31h3.81V55.2A6.63,6.63,0,0,1,212.54,53c3.18,0,4.71,1.8,4.71,4.62V67.8h-3.81V59Z" transform="translate(-10.47 -18.62)"/><path class="cls-1" d="M220.16,60.54a7.67,7.67,0,1,1,7.65,7.62A7.34,7.34,0,0,1,220.16,60.54Zm11.37,0c0-2.25-1.35-4.2-3.72-4.2s-3.69,1.95-3.69,4.2,1.32,4.23,3.69,4.23S231.53,62.82,231.53,60.54Z" transform="translate(-10.47 -18.62)"/><path class="cls-1" d="M236.3,53.31h4.08l3.78,10.08,3.78-10.08h4.11L246.23,67.8h-4.11Z" transform="translate(-10.47 -18.62)"/><path class="cls-1" d="M262.52,66.3a6,6,0,0,1-4.59,1.86,4.83,4.83,0,0,1-5-4.8c0-3.39,2.73-4.62,5-4.62a5.86,5.86,0,0,1,4.59,1.77v-2c0-1.47-1.26-2.43-3.18-2.43a6.1,6.1,0,0,0-4.23,1.71l-1.44-2.55A9.51,9.51,0,0,1,260,53c3.3,0,6.33,1.32,6.33,5.49V67.8h-3.81V66.3Zm0-3.78a3.81,3.81,0,0,0-3.06-1.26c-1.5,0-2.73.81-2.73,2.19s1.23,2.13,2.73,2.13a3.81,3.81,0,0,0,3.06-1.26Z" transform="translate(-10.47 -18.62)"/><path class="cls-1" d="M270.92,64.2V56.64h-2.4V53.31h2.4v-4h3.84v4h2.94v3.33h-2.94v6.54c0,.9.48,1.59,1.32,1.59a2.08,2.08,0,0,0,1.32-.42l.81,2.88a4.7,4.7,0,0,1-3.18.93C272.36,68.16,270.92,66.78,270.92,64.2Z" transform="translate(-10.47 -18.62)"/><path class="cls-1" d="M280,48.9a2.28,2.28,0,1,1,2.28,2.28A2.3,2.3,0,0,1,280,48.9Zm.39,4.41h3.81V67.8h-3.81Z" transform="translate(-10.47 -18.62)"/><path class="cls-1" d="M287.09,60.54a7.67,7.67,0,1,1,7.65,7.62A7.34,7.34,0,0,1,287.09,60.54Zm11.37,0c0-2.25-1.35-4.2-3.72-4.2s-3.69,1.95-3.69,4.2,1.32,4.23,3.69,4.23S298.46,62.82,298.46,60.54Z" transform="translate(-10.47 -18.62)"/><path class="cls-1" d="M315.08,59c0-2-1.05-2.7-2.67-2.7a4.13,4.13,0,0,0-3.3,1.71V67.8H305.3V53.31h3.81V55.2A6.63,6.63,0,0,1,314.18,53c3.18,0,4.71,1.8,4.71,4.62V67.8h-3.81Z" transform="translate(-10.47 -18.62)"/><path class="cls-2" d="M12.1,84v4.74H11v-6.5h1.17l3.32,4.61V82.22h1.14v6.5h-1.1Z" transform="translate(-10.47 -18.62)"/><path class="cls-2" d="M22.27,87.47H19.19l-.48,1.25H17.46L20,82.22h1.42L24,88.72H22.73Zm-2.76-1H22l-1.22-3.29Z" transform="translate(-10.47 -18.62)"/><path class="cls-2" d="M25.79,83.22h-2v-1H28.9v1h-2v5.5H25.79Z" transform="translate(-10.47 -18.62)"/><path class="cls-2" d="M30,82.21h1.14v6.5H30Z" transform="translate(-10.47 -18.62)"/><path class="cls-2" d="M35.75,82.11a3.36,3.36,0,1,1-3.32,3.36A3.22,3.22,0,0,1,35.75,82.11Zm0,1a2.36,2.36,0,1,0,2.15,2.35A2.15,2.15,0,0,0,35.75,83.12Z" transform="translate(-10.47 -18.62)"/><path class="cls-2" d="M41.48,84v4.74H40.34v-6.5h1.17l3.32,4.61V82.22H46v6.5h-1.1Z" transform="translate(-10.47 -18.62)"/><path class="cls-2" d="M51.65,87.47H48.57l-.48,1.25H46.84l2.55-6.5h1.42l2.55,6.5H52.11Zm-2.76-1h2.44l-1.22-3.29Z" transform="translate(-10.47 -18.62)"/><path class="cls-2" d="M54.26,82.21H55.4v5.5h2.87v1h-4Z" transform="translate(-10.47 -18.62)"/><path class="cls-2" d="M61.84,85.47a3.26,3.26,0,0,1,3.36-3.36,3,3,0,0,1,2.66,1.46l-1,.5a2,2,0,0,0-1.69-.95,2.36,2.36,0,0,0,0,4.7,1.93,1.93,0,0,0,1.69-.95l1,.5a3,3,0,0,1-2.66,1.46A3.26,3.26,0,0,1,61.84,85.47Z" transform="translate(-10.47 -18.62)"/><path class="cls-2" d="M69,82.21h4.46v1H70.1V84.9h3.25v1H70.1v1.8h3.31v1H69Z" transform="translate(-10.47 -18.62)"/><path class="cls-2" d="M75.88,84v4.74H74.74v-6.5h1.17l3.32,4.61V82.22h1.14v6.5h-1.1Z" transform="translate(-10.47 -18.62)"/><path class="cls-2" d="M83.48,83.22h-2v-1h5.08v1h-2v5.5H83.48Z" transform="translate(-10.47 -18.62)"/><path class="cls-2" d="M87.72,82.21h4.46v1H88.86V84.9h3.25v1H88.86v1.8h3.32v1H87.72Z" transform="translate(-10.47 -18.62)"/><path class="cls-2" d="M95.78,86.29H94.65v2.43H93.51v-6.5h2.86a2,2,0,0,1,2.13,2A1.82,1.82,0,0,1,97,86.17l1.59,2.55H97.23Zm.43-3.07H94.65v2.07h1.56a1,1,0,1,0,0-2.07Z" transform="translate(-10.47 -18.62)"/><path class="cls-2" d="M102.47,82.21h4.46v1h-3.31V84.9h3.25v1h-3.25v2.81h-1.14v-6.5Z" transform="translate(-10.47 -18.62)"/><path class="cls-2" d="M111.15,82.11a3.36,3.36,0,1,1-3.32,3.36A3.22,3.22,0,0,1,111.15,82.11Zm0,1a2.36,2.36,0,1,0,2.15,2.35A2.15,2.15,0,0,0,111.15,83.12Z" transform="translate(-10.47 -18.62)"/><path class="cls-2" d="M118,86.29h-1.13v2.43h-1.14v-6.5h2.86a2,2,0,0,1,2.13,2,1.82,1.82,0,0,1-1.54,1.91l1.59,2.55h-1.32Zm.43-3.07h-1.56v2.07h1.56a1,1,0,1,0,0-2.07Z" transform="translate(-10.47 -18.62)"/><path class="cls-2" d="M124.91,86.92a2.8,2.8,0,0,0,2.06.9c.94,0,1.31-.46,1.31-.89,0-.58-.69-.76-1.48-1-1.06-.26-2.31-.58-2.31-2,0-1.07,1-1.9,2.37-1.9a3.39,3.39,0,0,1,2.44.91l-.65.85a2.64,2.64,0,0,0-1.88-.74c-.67,0-1.1.32-1.1.81s.66.67,1.43.87c1.07.27,2.35.6,2.35,2,0,1.08-.76,2-2.52,2a3.48,3.48,0,0,1-2.64-1Z" transform="translate(-10.47 -18.62)"/><path class="cls-2" d="M130.66,82.21h1.15v3.9a1.67,1.67,0,1,0,3.33,0v-3.9h1.15v3.93a2.82,2.82,0,0,1-5.63,0V82.21Z" transform="translate(-10.47 -18.62)"/><path class="cls-2" d="M137.83,82.21h2.86a2,2,0,1,1,0,4.08H139v2.43h-1.14Zm2.7,1H139v2.07h1.56a1,1,0,1,0,0-2.07Z" transform="translate(-10.47 -18.62)"/><path class="cls-2" d="M143.93,82.21h4.46v1h-3.31V84.9h3.25v1h-3.25v1.8h3.31v1h-4.46Z" transform="translate(-10.47 -18.62)"/><path class="cls-2" d="M152,86.29h-1.13v2.43h-1.14v-6.5h2.86a2,2,0,0,1,2.13,2,1.82,1.82,0,0,1-1.54,1.91l1.59,2.55h-1.32Zm.43-3.07h-1.56v2.07h1.56a1,1,0,1,0,0-2.07Z" transform="translate(-10.47 -18.62)"/><path class="cls-2" d="M155.71,85.47a3.26,3.26,0,0,1,3.36-3.36,3,3,0,0,1,2.66,1.46l-1,.5a2,2,0,0,0-1.69-.95,2.36,2.36,0,0,0,0,4.7,1.93,1.93,0,0,0,1.69-.95l1,.5a3,3,0,0,1-2.66,1.46A3.26,3.26,0,0,1,155.71,85.47Z" transform="translate(-10.47 -18.62)"/><path class="cls-2" d="M165.85,82.11a3.36,3.36,0,1,1-3.32,3.36A3.22,3.22,0,0,1,165.85,82.11Zm0,1A2.36,2.36,0,1,0,168,85.47,2.15,2.15,0,0,0,165.85,83.12Z" transform="translate(-10.47 -18.62)"/><path class="cls-2" d="M176.06,83.79l-2,4.92h-.49l-2-4.92v4.92h-1.14v-6.5h1.61l1.76,4.38,1.77-4.38h1.61v6.5h-1.14V83.79Z" transform="translate(-10.47 -18.62)"/><path class="cls-2" d="M178.75,82.21h2.86a2,2,0,1,1,0,4.08h-1.72v2.43h-1.14Zm2.7,1h-1.56v2.07h1.56a1,1,0,1,0,0-2.07Z" transform="translate(-10.47 -18.62)"/><path class="cls-2" d="M184.85,82.21H186v3.9a1.67,1.67,0,1,0,3.33,0v-3.9h1.15v3.93a2.82,2.82,0,0,1-5.63,0V82.21Z" transform="translate(-10.47 -18.62)"/><path class="cls-2" d="M193.57,83.22h-2v-1h5.08v1h-2v5.5h-1.14Z" transform="translate(-10.47 -18.62)"/><path class="cls-2" d="M197.81,82.21H199v6.5h-1.14Z" transform="translate(-10.47 -18.62)"/><path class="cls-2" d="M201.64,84v4.74H200.5v-6.5h1.17L205,86.83V82.22h1.14v6.5H205Z" transform="translate(-10.47 -18.62)"/><path class="cls-2" d="M210.81,82.11a3,3,0,0,1,2.62,1.36l-.94.53a2.07,2.07,0,0,0-1.69-.87,2.36,2.36,0,0,0,0,4.71,2.4,2.4,0,0,0,1.54-.58v-1H210.4v-1h3.08v2.44a3.53,3.53,0,0,1-2.68,1.18,3.38,3.38,0,1,1,0-6.76Z" transform="translate(-10.47 -18.62)"/><path class="cls-2" d="M221.64,87.47h-3.08l-.48,1.25h-1.25l2.55-6.5h1.42l2.55,6.5H222.1Zm-2.76-1h2.44l-1.22-3.29Z" transform="translate(-10.47 -18.62)"/><path class="cls-2" d="M224.24,82.21h2.86a2,2,0,1,1,0,4.08h-1.72v2.43h-1.14Zm2.7,1h-1.56v2.07h1.56a1,1,0,1,0,0-2.07Z" transform="translate(-10.47 -18.62)"/><path class="cls-2" d="M230.34,82.21h2.86a2,2,0,1,1,0,4.08h-1.72v2.43h-1.14Zm2.7,1h-1.56v2.07H233a1,1,0,1,0,0-2.07Z" transform="translate(-10.47 -18.62)"/><path class="cls-2" d="M236.43,82.21h1.14v5.5h2.87v1h-4Z" transform="translate(-10.47 -18.62)"/><path class="cls-2" d="M241.64,82.21h1.14v6.5h-1.14Z" transform="translate(-10.47 -18.62)"/><path class="cls-2" d="M244,85.47a3.26,3.26,0,0,1,3.36-3.36,3,3,0,0,1,2.66,1.46l-1,.5a2,2,0,0,0-1.69-.95,2.36,2.36,0,0,0,0,4.7,1.93,1.93,0,0,0,1.69-.95l1,.5a3,3,0,0,1-2.66,1.46A3.26,3.26,0,0,1,244,85.47Z" transform="translate(-10.47 -18.62)"/><path class="cls-2" d="M255.22,87.47h-3.08l-.48,1.25h-1.25l2.55-6.5h1.42l2.55,6.5h-1.25Zm-2.76-1h2.44l-1.22-3.29Z" transform="translate(-10.47 -18.62)"/><path class="cls-2" d="M258.74,83.22h-2v-1h5.08v1h-2v5.5h-1.14v-5.5Z" transform="translate(-10.47 -18.62)"/><path class="cls-2" d="M263,82.21h1.14v6.5H263Z" transform="translate(-10.47 -18.62)"/><path class="cls-2" d="M268.7,82.11a3.36,3.36,0,1,1-3.33,3.36A3.23,3.23,0,0,1,268.7,82.11Zm0,1a2.36,2.36,0,1,0,2.16,2.35A2.15,2.15,0,0,0,268.7,83.12Z" transform="translate(-10.47 -18.62)"/><path class="cls-2" d="M274.44,84v4.74H273.3v-6.5h1.17l3.33,4.61V82.22h1.14v6.5h-1.1Z" transform="translate(-10.47 -18.62)"/><path class="cls-2" d="M280.7,86.92a2.8,2.8,0,0,0,2.06.9c.94,0,1.31-.46,1.31-.89,0-.58-.69-.76-1.48-1-1.06-.26-2.31-.58-2.31-2,0-1.07,1-1.9,2.37-1.9a3.39,3.39,0,0,1,2.44.91l-.65.85a2.64,2.64,0,0,0-1.88-.74c-.67,0-1.1.32-1.1.81s.66.67,1.43.87c1.07.27,2.35.6,2.35,2,0,1.08-.76,2-2.52,2a3.48,3.48,0,0,1-2.64-1Z" transform="translate(-10.47 -18.62)"/><path class="cls-2" d="M289.11,82h.7v6.89h-.7Z" transform="translate(-10.47 -18.62)"/><path class="cls-2" d="M295.17,84v4.74H294v-6.5h1.17l3.33,4.61V82.22h1.14v6.5h-1.1Z" transform="translate(-10.47 -18.62)"/><path class="cls-2" d="M300.93,85.47a3.26,3.26,0,0,1,3.36-3.36A3,3,0,0,1,307,83.57l-1,.5a2,2,0,0,0-1.69-.95,2.36,2.36,0,0,0,0,4.7,1.93,1.93,0,0,0,1.69-.95l1,.5a3,3,0,0,1-2.66,1.46A3.26,3.26,0,0,1,300.93,85.47Z" transform="translate(-10.47 -18.62)"/><path class="cls-2" d="M308.25,86.92a2.8,2.8,0,0,0,2.06.9c.94,0,1.31-.46,1.31-.89,0-.58-.69-.76-1.48-1-1.06-.26-2.31-.58-2.31-2,0-1.07.95-1.9,2.37-1.9a3.39,3.39,0,0,1,2.44.91l-.65.85a2.64,2.64,0,0,0-1.88-.74c-.67,0-1.1.32-1.1.81s.66.67,1.43.87c1.07.27,2.35.6,2.35,2,0,1.08-.76,2-2.52,2a3.48,3.48,0,0,1-2.64-1Z" transform="translate(-10.47 -18.62)"/><path class="cls-2" d="M318,87.47h-3.08l-.48,1.25h-1.25l2.55-6.5h1.42l2.55,6.5h-1.25Zm-2.76-1h2.44l-1.22-3.29Z" transform="translate(-10.47 -18.62)"/></svg>